<svg width="18" height="18" viewBox="0 0 18 18" fill="none" xmlns="http://www.w3.org/2000/svg">
<path d="M8.99014 17.8807C13.9005 17.8807 17.8812 13.9 17.8812 8.98965C17.8812 4.07928 13.9005 0.0986328 8.99014 0.0986328C4.07976 0.0986328 0.0991211 4.07928 0.0991211 8.98965C0.0991211 13.9 4.07976 17.8807 8.99014 17.8807Z" fill="white"/>
<path d="M4.56608 13.8307C4.46195 13.8307 4.3604 13.7894 4.28512 13.7134C4.18594 13.613 4.14761 13.4674 4.18495 13.3311L4.76761 11.2032C4.40071 10.512 4.20767 9.73633 4.20787 8.94957C4.20886 6.30282 6.36266 4.14941 9.00882 4.14941C10.2927 4.14981 11.4989 4.64988 12.405 5.55736C13.3113 6.46463 13.81 7.67085 13.8096 8.95353C13.8086 11.6007 11.655 13.7543 9.00862 13.7543C8.2598 13.7541 7.51869 13.578 6.85384 13.2439L4.66625 13.8177C4.63325 13.8266 4.59947 13.8307 4.56608 13.8307ZM6.90165 12.4277C6.96725 12.4277 7.03245 12.4441 7.09093 12.4759C7.67596 12.795 8.33844 12.9638 9.00724 12.964C11.2195 12.964 13.0185 11.1648 13.0195 8.95313C13.0199 7.88147 12.6032 6.87382 11.846 6.11591C11.0889 5.3578 10.0813 4.94012 9.00882 4.93973C6.79832 4.93973 4.99937 6.73868 4.99838 8.95017C4.99818 9.65453 5.18331 10.348 5.53362 10.955C5.58637 11.0465 5.6002 11.1551 5.57254 11.2569L5.12819 12.8796L6.80167 12.4406C6.83428 12.4321 6.86806 12.4277 6.90165 12.4277Z" fill="#4BAE4F"/>
<path d="M7.28603 9.03822C7.22972 8.96314 6.82666 8.4281 6.82666 7.87429C6.82666 7.32048 7.1173 7.04822 7.22043 6.9356C7.32357 6.82298 7.44548 6.79492 7.52055 6.79492C7.59563 6.79492 7.67071 6.79571 7.73631 6.79887C7.80546 6.80243 7.89813 6.7726 7.98941 6.99211C8.08326 7.21734 8.3081 7.77135 8.33636 7.82766C8.36461 7.88397 8.38318 7.94957 8.34584 8.02485C8.3083 8.09993 8.28953 8.14675 8.23342 8.21255C8.17711 8.27834 8.11526 8.35935 8.06449 8.40973C8.00818 8.46584 7.9495 8.52669 8.01509 8.63931C8.08069 8.75193 8.30652 9.12042 8.64102 9.41896C9.07075 9.80246 9.43331 9.9212 9.54593 9.97751C9.65835 10.0338 9.72414 10.0245 9.78974 9.94926C9.85534 9.87418 10.0711 9.62068 10.1462 9.50807C10.2213 9.39545 10.2961 9.41422 10.3993 9.45176C10.5024 9.4893 11.0556 9.76156 11.168 9.81787C11.2805 9.87418 11.3555 9.90243 11.3838 9.94926C11.4121 9.99628 11.4121 10.2215 11.3182 10.4843C11.2244 10.7471 10.7749 10.9871 10.5587 11.0193C10.3649 11.0484 10.1195 11.0604 9.85 10.9747C9.6866 10.9229 9.47697 10.8536 9.20846 10.7376C8.0795 10.25 7.34254 9.1133 7.28603 9.03822Z" fill="#4BAE4F"/>
</svg>
