<svg width="116" height="50" viewBox="0 0 116 50" fill="none" xmlns="http://www.w3.org/2000/svg">
<path d="M110.383 24.9999C113.776 22.6228 116 18.6898 116 14.2463C116 7.00546 110.1 1.11426 102.848 1.11426H82.4506H77.9399V3.49275V46.2824V48.8862H82.4506H102.848C110.1 48.8862 116 42.995 116 35.7542C116 31.3101 113.776 27.3771 110.383 24.9999ZM93.184 5.87058H102.848C107.473 5.87058 111.236 9.6279 111.236 14.2457C111.236 18.8634 107.473 22.6214 102.848 22.6214H93.184V5.87058ZM102.848 44.1293H93.184V27.3784H102.848C107.473 27.3784 111.236 31.1357 111.236 35.7542C111.236 40.3719 107.473 44.1293 102.848 44.1293Z" fill="#5C771D"/>
<path d="M100.54 24.9999C103.934 22.6228 106.158 18.6898 106.158 14.2463C106.158 7.00546 100.257 1.11426 93.0055 1.11426H75.5586V22.6221V27.3791V48.8869H93.0055C100.257 48.8869 106.158 42.9957 106.158 35.7548C106.158 31.3101 103.934 27.3771 100.54 24.9999ZM101.394 14.2457C101.394 18.8038 97.7273 22.5213 93.1841 22.6168V5.87522C97.7273 5.97067 101.394 9.68756 101.394 14.2457ZM80.3222 5.87057H92.0548C87.914 6.42211 84.7186 9.96068 84.7186 14.2457C84.7186 18.5313 87.914 22.0699 92.0555 22.6214H80.3222V5.87057ZM80.3222 27.3784H92.0548C87.914 27.9299 84.7186 31.4678 84.7186 35.7535C84.7186 40.0392 87.914 43.5777 92.0555 44.1293H80.3222V27.3784ZM93.1841 44.1246V27.3824C97.7273 27.4778 101.394 31.1947 101.394 35.7535C101.394 40.3116 97.7273 44.0292 93.1841 44.1246Z" fill="#DB9E3B"/>
<path d="M0.115723 9.2428C0.115723 8.82915 0.250497 8.4029 0.520709 7.96472C0.790257 7.52655 1.174 7.08373 1.6706 6.63627C2.16721 6.18815 2.77469 5.74069 3.49304 5.29323C4.21139 4.84511 5.01871 4.41025 5.91566 3.98599V3.24951H8.23005V8.82451C8.23005 9.21959 8.30441 9.48409 8.45446 9.61866C8.60384 9.75389 8.87604 9.82085 9.27173 9.82085H10.1109L10.7908 10.5142V11.7274L10.1109 12.4207H8.9245C8.4518 12.4207 8.06142 12.3843 7.7527 12.3127C7.44398 12.2404 7.19302 12.1417 7.00049 12.0164C6.80729 11.8911 6.66057 11.7492 6.55899 11.5901C6.45741 11.431 6.3784 11.2699 6.32064 11.1062C6.04114 11.2216 5.66735 11.3256 5.19996 11.4165C4.7319 11.5079 4.22335 11.5537 3.67363 11.5537C3.07544 11.5537 2.55294 11.4887 2.10414 11.3588C1.656 11.2288 1.28487 11.0558 0.990758 10.8391C0.696646 10.6223 0.476891 10.3744 0.332822 10.0953C0.188089 9.81621 0.115723 9.53182 0.115723 9.2428ZM2.21302 1.24158C2.21302 0.962496 2.31194 0.719211 2.50979 0.512386C2.70697 0.305561 2.94598 0.202148 3.22549 0.202148C3.50499 0.202148 3.74865 0.305561 3.95579 0.512386C4.16293 0.719874 4.2665 0.962496 4.2665 1.24158C4.2665 1.37681 4.23795 1.50409 4.17953 1.62473C4.12177 1.74538 4.04674 1.85344 3.95512 1.94956C3.8635 2.04568 3.75462 2.12058 3.62981 2.17362C3.50433 2.22665 3.36955 2.25317 3.22482 2.25317C2.94531 2.25317 2.70631 2.15174 2.50912 1.95022C2.31194 1.74737 2.21302 1.51138 2.21302 1.24158ZM3.37022 9.09895C3.50499 9.09895 3.66898 9.0963 3.86218 9.09165C4.05471 9.08701 4.26451 9.07707 4.49157 9.06249C4.71796 9.0479 4.95431 9.02868 5.20062 9.00482C5.44694 8.98095 5.68528 8.95443 5.91632 8.92527V6.59981C5.39581 6.75426 4.92045 6.92463 4.49157 7.11289C4.06268 7.3005 3.6962 7.4881 3.39213 7.67636C3.08872 7.86396 2.8517 8.03963 2.68307 8.20337C2.51444 8.3671 2.43012 8.50698 2.43012 8.62232C2.43012 8.75755 2.49717 8.87025 2.63261 8.96173C2.76805 9.05321 3.0137 9.09895 3.37022 9.09895ZM4.70136 1.24158C4.70136 0.962496 4.80028 0.719211 4.99813 0.512386C5.19531 0.305561 5.43432 0.202148 5.71449 0.202148C5.994 0.202148 6.23765 0.305561 6.44479 0.512386C6.65194 0.719874 6.75551 0.962496 6.75551 1.24158C6.75551 1.37681 6.72629 1.50409 6.66853 1.62473C6.61077 1.74538 6.53575 1.85344 6.44413 1.94956C6.35251 2.04568 6.24363 2.12058 6.11881 2.17362C5.99333 2.22665 5.85856 2.25317 5.71383 2.25317C5.43432 2.25317 5.19531 2.15174 4.99747 1.95022C4.80028 1.74737 4.70136 1.51138 4.70136 1.24158Z" fill="#5C771D"/>
<path d="M10.9059 9.82129L11.4841 10.3987V11.8431L10.9059 12.4205H10.1105L9.53223 11.8431V10.3987L10.1105 9.82129H10.9059Z" fill="#5C771D"/>
<path d="M26.0945 9.82128L26.7743 10.5001V11.7278L26.0945 12.4212H10.9069L10.2124 11.7278V10.5001L10.9069 9.82128H11.8038C12.0063 9.82128 12.1729 9.79211 12.3031 9.73444C12.4332 9.67677 12.5348 9.59987 12.6065 9.50309C12.6782 9.4063 12.7266 9.29162 12.7512 9.15639C12.7751 9.02182 12.7871 8.87731 12.7871 8.72285V4.56447H15.1014V8.52199C15.1014 8.83024 15.0822 9.08281 15.0437 9.28035C15.0052 9.4779 14.9229 9.65821 14.798 9.82194H16.4326C16.6351 9.82194 16.8011 9.79278 16.9319 9.7351C17.062 9.67743 17.1636 9.60053 17.2353 9.50375C17.307 9.40697 17.3554 9.29228 17.38 9.15705C17.4039 9.02248 17.4165 8.87797 17.4165 8.72351V4.56447H19.7309V8.52199C19.7309 8.83024 19.711 9.08281 19.6731 9.28035C19.6346 9.4779 19.5523 9.65821 19.4275 9.82194H20.9173C21.1198 9.82194 21.2865 9.79278 21.4166 9.7351C21.5467 9.67743 21.6483 9.60053 21.72 9.50375C21.7917 9.40697 21.8408 9.29228 21.8647 9.15705C21.8886 9.02248 21.9006 8.87797 21.9006 8.72351V4.21777H24.215V8.52199C24.215 8.83024 24.1957 9.08281 24.1572 9.28035C24.1187 9.4779 24.0364 9.65821 23.9116 9.82194H26.0945V9.82128Z" fill="#5C771D"/>
<path d="M39.4018 4.21777V8.30522C39.4018 9.09474 39.3075 9.75168 39.1196 10.2767C38.9318 10.8017 38.6615 11.2227 38.3097 11.5402C37.9578 11.8577 37.5309 12.0844 37.0296 12.219C36.5277 12.3542 35.9594 12.4212 35.3227 12.4212H26.0944L25.3999 11.7278V10.5001L26.0944 9.82128H26.9913C27.1938 9.82128 27.3604 9.79211 27.4906 9.73444C27.6207 9.67677 27.7223 9.59987 27.794 9.50309C27.8663 9.40697 27.9141 9.29162 27.9387 9.15639C27.9626 9.02182 27.9746 8.87731 27.9746 8.72285V4.56447H30.2889V8.52199C30.2889 8.83024 30.2697 9.08281 30.2312 9.28035C30.1927 9.4779 30.1104 9.65821 29.9855 9.82194H31.6201C31.8226 9.82194 31.9886 9.79278 32.1194 9.7351C32.2495 9.67743 32.3511 9.60053 32.4228 9.50375C32.4945 9.40697 32.5436 9.29228 32.5675 9.15705C32.5914 9.02248 32.604 8.87797 32.604 8.72351V4.56447H34.9184V8.52199C34.9184 8.83024 34.8985 9.08281 34.8606 9.28035C34.8221 9.4779 34.7398 9.65821 34.615 9.82194H36.1048C36.3073 9.82194 36.474 9.79278 36.6041 9.7351C36.7342 9.67743 36.8358 9.60053 36.9075 9.50375C36.9792 9.40697 37.0283 9.29228 37.0522 9.15705C37.0761 9.02248 37.0881 8.87797 37.0881 8.72351V4.21777H39.4018Z" fill="#5C771D"/>
<path d="M48.9624 9.82088L49.6422 10.5143V11.7274L48.9624 12.4208H47.4579C47.2262 12.9405 46.9248 13.3833 46.5537 13.7492C46.1819 14.1152 45.763 14.4155 45.2949 14.6521C44.8269 14.8881 44.321 15.0611 43.7765 15.1718C43.2315 15.2825 42.6698 15.3382 42.0915 15.3382L41.5418 12.7383C42.5058 12.7383 43.2919 12.6806 43.8994 12.5653C44.5068 12.45 44.8833 12.32 45.0274 12.1755C44.3137 12.1463 43.6869 12.0814 43.1472 11.9806C42.6067 11.8799 42.1566 11.7161 41.7948 11.4894C41.4329 11.2634 41.1607 10.9644 40.9775 10.5938C40.7943 10.2233 40.7026 9.75393 40.7026 9.18583C40.7026 8.51232 40.8255 7.88389 41.0711 7.3012C41.3168 6.71851 41.6228 6.21337 41.99 5.78514C42.3564 5.35691 42.7588 5.02214 43.1976 4.78151C43.6365 4.54087 44.0534 4.42089 44.4484 4.42089C44.8627 4.42089 45.275 4.55811 45.6853 4.83255C46.0949 5.10699 46.4641 5.48485 46.792 5.96611C47.1193 6.44738 47.3823 7.01814 47.5801 7.67772C47.7773 8.33731 47.8769 9.05258 47.8769 9.82221H48.9624V9.82088ZM44.4644 0C44.6569 0 44.8501 0.0238645 45.0426 0.0722563C45.2352 0.120648 45.433 0.206825 45.6355 0.332114L45.2013 1.54522C45.0951 1.49683 44.9576 1.4491 44.789 1.40071C44.6204 1.35298 44.4829 1.32845 44.3767 1.32845C44.2805 1.32845 44.1981 1.35497 44.1311 1.408C44.0634 1.46103 44.0295 1.53594 44.0295 1.63206C44.0295 1.76663 44.0899 1.90186 44.2101 2.03643C44.3303 2.171 44.5015 2.23862 44.724 2.23862C44.8879 2.23862 45.0878 2.22934 45.3241 2.21011C45.5605 2.19089 45.828 2.1425 46.1268 2.0656L45.8951 2.70132C45.7889 2.9804 45.7019 3.16602 45.6348 3.2575C45.5671 3.34898 45.5094 3.4093 45.4616 3.43781C45.3839 3.47625 45.2856 3.50012 45.1648 3.51006C45.044 3.51934 44.8149 3.52465 44.4776 3.52465H42.6406V2.29629H43.1033C43.0071 2.19089 42.944 2.08681 42.9155 1.98605C42.8862 1.88529 42.8723 1.79116 42.8723 1.70432C42.8723 1.51208 42.9128 1.31453 42.9951 1.11235C43.0768 0.910164 43.1903 0.727203 43.335 0.563466C43.4798 0.39973 43.6484 0.265161 43.8416 0.159096C44.0355 0.0530321 44.2419 0 44.4644 0ZM42.873 8.93989C42.873 9.07512 42.9062 9.19776 42.9739 9.30846C43.0416 9.41917 43.1591 9.5133 43.3284 9.59019C43.497 9.66709 43.7234 9.72476 44.0083 9.76321C44.2924 9.80166 44.6516 9.82088 45.0858 9.82088H45.7079C45.6694 9.42579 45.6043 9.05788 45.5127 8.71583C45.4211 8.37443 45.3122 8.07812 45.1874 7.82754C45.0619 7.57763 44.9198 7.37942 44.7611 7.23557C44.6018 7.09106 44.4358 7.0188 44.2619 7.0188C44.1072 7.0188 43.9485 7.07647 43.7845 7.19182C43.6205 7.30716 43.4711 7.45897 43.3364 7.64657C43.2009 7.83417 43.0907 8.04166 43.0038 8.26771C42.9168 8.49442 42.873 8.71848 42.873 8.93989Z" fill="#5C771D"/>
<path d="M49.7584 9.82129L50.3367 10.3987V11.8431L49.7584 12.4205H48.963L48.3848 11.8431V10.3987L48.963 9.82129H49.7584Z" fill="#5C771D"/>
<path d="M50.5533 9.82129L51.1316 10.3987V11.8431L50.5533 12.4205H49.758L49.1797 11.8431V10.3987L49.758 9.82129H50.5533Z" fill="#5C771D"/>
<path d="M51.3487 9.82129L51.927 10.3987V11.8431L51.3487 12.4205H50.5534L49.9751 11.8431V10.3987L50.5534 9.82129H51.3487Z" fill="#5C771D"/>
<path d="M52.1441 9.82129L52.7224 10.3987V11.8431L52.1441 12.4205H51.3488L50.7705 11.8431V10.3987L51.3488 9.82129H52.1441Z" fill="#5C771D"/>
<path d="M52.9405 9.82129L53.5188 10.3987V11.8431L52.9405 12.4205H52.1452L51.5669 11.8431V10.3987L52.1452 9.82129H52.9405Z" fill="#5C771D"/>
<path d="M53.7359 9.82129L54.3142 10.3987V11.8431L53.7359 12.4205H52.9406L52.3623 11.8431V10.3987L52.9406 9.82129H53.7359Z" fill="#5C771D"/>
<path d="M54.5309 9.82129L55.1091 10.3987V11.8431L54.5309 12.4205H53.7355L53.1572 11.8431V10.3987L53.7355 9.82129H54.5309Z" fill="#5C771D"/>
<path d="M55.3272 9.82129L55.9055 10.3987V11.8431L55.3272 12.4205H54.5319L53.9536 11.8431V10.3987L54.5319 9.82129H55.3272Z" fill="#5C771D"/>
<path d="M56.1227 9.82129L56.7009 10.3987V11.8431L56.1227 12.4205H55.3273L54.749 11.8431V10.3987L55.3273 9.82129H56.1227Z" fill="#5C771D"/>
<path d="M56.9181 9.82129L57.4963 10.3987V11.8431L56.9181 12.4205H56.1227L55.5444 11.8431V10.3987L56.1227 9.82129H56.9181Z" fill="#5C771D"/>
<path d="M57.713 9.82129L58.2913 10.3987V11.8431L57.713 12.4205H56.9176L56.3394 11.8431V10.3987L56.9176 9.82129H57.713Z" fill="#5C771D"/>
<path d="M58.5094 9.82129L59.0876 10.3987V11.8431L58.5094 12.4205H57.714L57.1357 11.8431V10.3987L57.714 9.82129H58.5094Z" fill="#5C771D"/>
<path d="M63.8034 4.43359C64.2662 4.43359 64.7024 4.57081 65.1127 4.84459C65.5223 5.11837 65.8795 5.47634 66.1829 5.91849C66.4863 6.36065 66.7273 6.86048 66.9059 7.41798C67.0845 7.97548 67.1734 8.53298 67.1734 9.09048C67.1734 9.7441 67.0652 10.287 66.8481 10.7192C66.631 11.1521 66.3495 11.5001 66.0023 11.7646C65.6551 12.0291 65.2647 12.2161 64.8305 12.3268C64.3963 12.4375 63.9575 12.4925 63.514 12.4925C63.022 12.4925 62.5493 12.4249 62.0965 12.2903C61.6431 12.1557 61.2142 11.9482 60.8092 11.6692C60.5775 11.939 60.2953 12.1312 59.9627 12.2466C59.6301 12.3619 59.1454 12.4196 58.5094 12.4196L57.8149 11.7699V10.5131L58.5094 9.81967H58.6249C58.7597 9.81967 58.8852 9.78387 59.0007 9.71162C59.1162 9.63936 59.2224 9.54125 59.3187 9.41596C59.415 9.29134 59.5039 9.15478 59.5863 9.00563C59.6679 8.85647 59.7476 8.70069 59.8246 8.53762C60.1911 7.76003 60.531 7.10906 60.8444 6.58603C61.1577 6.06301 61.4711 5.64007 61.7845 5.31857C62.0978 4.99706 62.4158 4.76902 62.7392 4.63445C63.0632 4.50121 63.4177 4.43359 63.8034 4.43359ZM63.6879 7.03349C63.4662 7.03349 63.2252 7.20916 62.9649 7.5605C62.7047 7.91184 62.4052 8.51176 62.068 9.35829C62.3767 9.55119 62.6847 9.68841 62.9935 9.76995C63.3022 9.85215 63.5817 9.89259 63.8326 9.89259C64.1991 9.89259 64.462 9.84685 64.6214 9.75537C64.7807 9.66389 64.8597 9.51672 64.8597 9.31454C64.8597 9.06462 64.8278 8.8041 64.7654 8.5343C64.7024 8.26516 64.6161 8.01923 64.5052 7.79782C64.3943 7.57641 64.2688 7.39345 64.1294 7.24894C63.9887 7.10575 63.8419 7.03349 63.6879 7.03349Z" fill="#5C771D"/>
<path d="M5.00453 27.5272C5.00453 29.2123 4.63805 30.4347 3.90509 31.1957C3.17213 31.956 2.09726 32.3366 0.67914 32.3366L0.245605 29.7367C0.833831 29.7367 1.29923 29.6956 1.64115 29.614C1.98306 29.5325 2.24332 29.4098 2.42191 29.2461C2.6005 29.083 2.71337 28.8782 2.76183 28.6336C2.8103 28.3883 2.8342 28.1072 2.8342 27.7904V21.8945H5.00386V27.5272H5.00453Z" fill="#DB9E3B"/>
<path d="M7.34792 27.152H11.3978C11.3208 26.4301 11.012 25.8328 10.4723 25.3608C9.93186 24.8888 9.14181 24.5859 8.10013 24.4507L8.93931 21.75C10.4145 22.0291 11.5551 22.6383 12.3604 23.577C13.1651 24.5156 13.6113 25.7075 13.6982 27.1513H14.9424L15.6369 27.8447V29.0578L14.9424 29.7512H6.5957L7.34792 27.152Z" fill="#DB9E3B"/>
<path d="M15.7374 27.1514L16.3157 27.7288V29.1732L15.7374 29.7506H14.942L14.3638 29.1732V27.7288L14.942 27.1514H15.7374Z" fill="#DB9E3B"/>
<path d="M16.5328 27.1514L17.1111 27.7288V29.1732L16.5328 29.7506H15.7374L15.1592 29.1732V27.7288L15.7374 27.1514H16.5328Z" fill="#DB9E3B"/>
<path d="M17.3282 27.1514L17.9065 27.7288V29.1732L17.3282 29.7506H16.5329L15.9546 29.1732V27.7288L16.5329 27.1514H17.3282Z" fill="#DB9E3B"/>
<path d="M18.1243 27.1514L18.7026 27.7288V29.1732L18.1243 29.7506H17.3283L16.75 29.1732V27.7288L17.3283 27.1514H18.1243Z" fill="#DB9E3B"/>
<path d="M18.9195 27.1514L19.4978 27.7288V29.1732L18.9195 29.7506H18.1242L17.5459 29.1732V27.7288L18.1242 27.1514H18.9195Z" fill="#DB9E3B"/>
<path d="M19.7149 27.1514L20.2932 27.7288V29.1732L19.7149 29.7506H18.9196L18.3413 29.1732V27.7288L18.9196 27.1514H19.7149Z" fill="#DB9E3B"/>
<path d="M20.5104 27.1514L21.0886 27.7288V29.1732L20.5104 29.7506H19.715L19.1367 29.1732V27.7288L19.715 27.1514H20.5104Z" fill="#DB9E3B"/>
<path d="M20.5104 29.7519L19.8159 29.0585V27.8454L20.5104 27.152H21.4073C21.8216 27.152 22.0892 27.0751 22.21 26.9207C22.3308 26.7669 22.3906 26.5355 22.3906 26.2273V21.8945H24.705V25.9382C24.705 26.1789 24.6877 26.4049 24.6545 26.617C24.6206 26.8292 24.5463 27.0068 24.4301 27.1513H26.4411L27.1209 27.8302V29.0578L26.4411 29.7512H20.5104V29.7519ZM22.0726 31.3548C22.0726 31.0757 22.1715 30.8324 22.3693 30.6256C22.5672 30.4181 22.8055 30.3154 23.0857 30.3154C23.3652 30.3154 23.6088 30.4188 23.816 30.6256C24.0231 30.8324 24.1267 31.0757 24.1267 31.3548C24.1267 31.4894 24.0975 31.6173 24.0397 31.738C23.982 31.8586 23.9069 31.9667 23.8153 32.0628C23.7237 32.1589 23.6148 32.2338 23.49 32.2868C23.3645 32.3399 23.2298 32.3664 23.085 32.3664C22.8055 32.3664 22.5665 32.265 22.3687 32.0634C22.1715 31.8606 22.0726 31.6246 22.0726 31.3548Z" fill="#DB9E3B"/>
<path d="M30.3458 26.0831C30.3458 26.6605 30.2881 27.1782 30.1726 27.6356C30.057 28.093 29.8685 28.4782 29.6082 28.7911C29.348 29.104 29.0101 29.3426 28.5958 29.5057C28.1808 29.6694 27.6703 29.751 27.0621 29.751H26.4401L25.7456 29.0576V27.8445L26.4401 27.1511H27.3224C27.5634 27.1511 27.742 27.1007 27.8575 26.9993C27.973 26.8978 28.0308 26.7129 28.0308 26.4431V19.0352H30.3452V26.0831H30.3458Z" fill="#DB9E3B"/>
<path d="M32.6606 29.7516V19.0352H34.975V29.7516H32.6606Z" fill="#DB9E3B"/>
<path d="M39.2563 29.0484C39.2563 28.4498 39.3573 27.818 39.5598 27.1518L41.7586 27.4422C41.6816 27.7418 41.6305 28.0103 41.6066 28.2469C41.5827 28.4836 41.5707 28.6798 41.5707 28.8343C41.5707 29.1054 41.6066 29.34 41.679 29.5383C41.7513 29.7365 41.8788 29.9029 42.0627 30.0387C42.2459 30.174 42.4942 30.2754 42.8076 30.3437C43.121 30.4113 43.524 30.4451 44.0153 30.4451C45.0569 30.4451 45.8377 30.3775 46.3582 30.2429C46.8787 30.1077 47.2359 29.9446 47.4284 29.7517C46.9657 29.7517 46.5049 29.706 46.0468 29.6145C45.5887 29.523 45.1765 29.3619 44.81 29.1306C44.4435 28.8992 44.1467 28.5916 43.9203 28.2065C43.6939 27.8213 43.5804 27.3401 43.5804 26.762C43.5804 26.2231 43.6886 25.6815 43.9057 25.1373C44.1228 24.5937 44.405 24.1025 44.7522 23.6643C45.0994 23.2261 45.4845 22.8701 45.9094 22.5957C46.3336 22.3212 46.7579 22.184 47.1821 22.184C47.5871 22.184 47.9848 22.302 48.3758 22.5367C48.7662 22.772 49.1154 23.1055 49.4242 23.5377C49.7329 23.9699 49.9858 24.4903 50.1837 25.1001C50.3809 25.71 50.4944 26.3888 50.5236 27.1379H51.4637L52.1435 27.8353V29.055L51.4637 29.7524H50.1186C49.6559 30.821 48.8678 31.637 47.7538 32.2005C46.6404 32.7639 45.2681 33.0457 43.6388 33.0457C42.1152 33.0457 41.0038 32.7076 40.3047 32.0321C39.6056 31.3553 39.2563 30.3609 39.2563 29.0484ZM44.8684 20.306C44.8684 20.0269 44.9673 19.7837 45.1652 19.5768C45.3623 19.37 45.6014 19.2666 45.8809 19.2666C46.1604 19.2666 46.404 19.37 46.6112 19.5768C46.8183 19.7843 46.9219 20.0269 46.9219 20.306C46.9219 20.4413 46.8933 20.5685 46.8349 20.6892C46.7771 20.8098 46.7021 20.9179 46.6105 21.014C46.5189 21.1101 46.41 21.185 46.2852 21.2381C46.1597 21.2911 46.0249 21.3176 45.8802 21.3176C45.6007 21.3176 45.3617 21.2162 45.1645 21.0147C44.9673 20.8118 44.8684 20.5758 44.8684 20.306ZM45.8955 26.4054C45.8955 26.5492 45.9267 26.6686 45.9897 26.764C46.0522 26.8595 46.161 26.9337 46.3151 26.9868C46.4691 27.0398 46.6716 27.0776 46.9225 27.1014C47.1735 27.1253 47.4816 27.1372 47.848 27.1372H48.1514C48.1514 26.8025 48.1202 26.4916 48.0578 26.2045C47.9948 25.9175 47.9084 25.6689 47.7976 25.4581C47.6867 25.2473 47.5612 25.0822 47.4211 24.9629C47.2811 24.8429 47.139 24.7833 46.9942 24.7833C46.8787 24.7833 46.7579 24.8264 46.6331 24.9125C46.5076 24.9987 46.3894 25.116 46.2785 25.2639C46.1677 25.4124 46.076 25.5847 46.0037 25.7803C45.932 25.9772 45.8955 26.1853 45.8955 26.4054ZM47.3567 20.306C47.3567 20.0269 47.4557 19.7837 47.6535 19.5768C47.8514 19.37 48.0897 19.2666 48.3699 19.2666C48.6494 19.2666 48.893 19.37 49.1002 19.5768C49.3073 19.7843 49.4109 20.0269 49.4109 20.306C49.4109 20.4413 49.3817 20.5685 49.3239 20.6892C49.2661 20.8098 49.1911 20.9179 49.0995 21.014C49.0079 21.1101 48.899 21.185 48.7742 21.2381C48.6487 21.2911 48.5139 21.3176 48.3692 21.3176C48.0897 21.3176 47.8507 21.2162 47.6528 21.0147C47.455 20.8118 47.3567 20.5758 47.3567 20.306Z" fill="#DB9E3B"/>
<path d="M52.2454 27.152C52.6597 27.152 52.9279 27.0751 53.0481 26.9207C53.1682 26.7669 53.2287 26.5355 53.2287 26.2273V21.8945H55.5431V25.7791C55.5431 27.1944 55.2078 28.2107 54.5379 28.8265C53.8673 29.443 52.8914 29.7506 51.6087 29.7506H51.464L50.7695 29.0572V27.8441L51.464 27.1507H52.2454V27.152ZM51.2768 31.3402C51.2768 31.0611 51.3757 30.8178 51.5735 30.611C51.7707 30.4035 52.0097 30.3001 52.2892 30.3001C52.5687 30.3001 52.8124 30.4035 53.0195 30.611C53.2267 30.8178 53.3302 31.0611 53.3302 31.3402C53.3302 31.4748 53.3017 31.6021 53.2433 31.7227C53.1855 31.8427 53.1105 31.9514 53.0189 32.0475C52.9272 32.1437 52.8184 32.2186 52.6935 32.2716C52.5681 32.3246 52.4333 32.3511 52.2886 32.3511C52.0091 32.3511 51.77 32.2504 51.5729 32.0482C51.3757 31.846 51.2768 31.61 51.2768 31.3402ZM53.7644 31.3402C53.7644 31.0611 53.8634 30.8178 54.0612 30.611C54.2591 30.4035 54.4974 30.3001 54.7776 30.3001C55.0571 30.3001 55.3007 30.4035 55.5079 30.611C55.715 30.8178 55.8186 31.0611 55.8186 31.3402C55.8186 31.4748 55.7894 31.6021 55.7316 31.7227C55.6738 31.8427 55.5988 31.9514 55.5072 32.0475C55.4156 32.1437 55.3067 32.2186 55.1819 32.2716C55.0564 32.3246 54.9216 32.3511 54.7769 32.3511C54.4974 32.3511 54.2584 32.2504 54.0605 32.0482C53.8634 31.846 53.7644 31.61 53.7644 31.3402Z" fill="#DB9E3B"/>
<path d="M62.6599 27.1513L63.3544 27.8447V29.0578L62.6599 29.7512H61.2571C60.9775 30.6614 60.5022 31.3223 59.8323 31.7333C59.1617 32.145 58.2914 32.3505 57.2211 32.3505L56.7876 29.7506C57.3758 29.7506 57.8412 29.7095 58.1831 29.6279C58.5251 29.5464 58.7853 29.4238 58.9639 29.26C59.1425 29.0963 59.2554 28.8915 59.3038 28.6462C59.3523 28.4009 59.3762 28.1192 59.3762 27.8016V21.8945H61.5459V27.1513H62.6599Z" fill="#DB9E3B"/>
<path d="M63.4412 27.152C63.8555 27.152 64.1237 27.0751 64.2439 26.9207C64.3647 26.7669 64.4245 26.5355 64.4245 26.2273V21.8945H66.7389V25.7791C66.7389 27.1944 66.4036 28.2107 65.7337 28.8265C65.0631 29.443 64.0872 29.7506 62.8045 29.7506H62.6598L61.9653 29.0572V27.8441L62.6598 27.1507H63.4412V27.152ZM63.1086 31.3548C63.1086 31.0757 63.2075 30.8324 63.4054 30.6256C63.6025 30.4181 63.8415 30.3154 64.1211 30.3154C64.4006 30.3154 64.6442 30.4188 64.8514 30.6256C65.0585 30.8324 65.1627 31.0757 65.1627 31.3548C65.1627 31.4894 65.1335 31.6173 65.0758 31.738C65.018 31.8586 64.943 31.9667 64.8514 32.0628C64.7597 32.1589 64.6509 32.2338 64.526 32.2868C64.4006 32.3399 64.2658 32.3664 64.1211 32.3664C63.8415 32.3664 63.6025 32.265 63.4054 32.0634C63.2068 31.8606 63.1086 31.6246 63.1086 31.3548Z" fill="#DB9E3B"/>
<path d="M0 43.6454C0 43.1542 0.0458099 42.6272 0.13743 42.0638C0.22905 41.5003 0.375774 40.901 0.578931 40.266L2.90727 40.8579C2.75258 41.32 2.63971 41.7681 2.56735 42.201C2.49498 42.6339 2.45913 43.0289 2.45913 43.3849C2.45913 43.5778 2.48104 43.7409 2.52419 43.8761C2.56735 44.0114 2.64702 44.1241 2.76254 44.2155C2.87806 44.307 3.03474 44.3746 3.23259 44.4177C3.42977 44.4608 3.68338 44.4827 3.9921 44.4827H8.54853C8.96281 44.4827 9.23037 44.3866 9.3512 44.1937C9.47137 44.0014 9.53178 43.7316 9.53178 43.3849V39.2252H11.8462V42.9514C11.8462 43.6063 11.7692 44.191 11.6145 44.7061C11.4598 45.2212 11.2188 45.6547 10.8915 46.006C10.5635 46.3574 10.1419 46.6245 9.62606 46.8075C9.1102 46.9904 8.49077 47.0819 7.76777 47.0819H3.60172C2.3768 47.0819 1.47056 46.8075 0.882339 46.2586C0.294113 45.7104 0 44.8393 0 43.6454ZM3.9921 38.6478C3.9921 38.3687 4.09102 38.1255 4.28887 37.9186C4.48672 37.7118 4.72506 37.6084 5.00523 37.6084C5.28474 37.6084 5.52839 37.7118 5.73553 37.9186C5.94268 38.1261 6.04625 38.3687 6.04625 38.6478C6.04625 38.7831 6.01703 38.9103 5.95927 39.0303C5.90151 39.151 5.82649 39.259 5.73487 39.3551C5.64325 39.4513 5.53437 39.5262 5.40955 39.5792C5.28407 39.6322 5.1493 39.6588 5.00457 39.6588C4.72506 39.6588 4.48605 39.5573 4.28821 39.3551C4.09102 39.1536 3.9921 38.9176 3.9921 38.6478ZM6.47978 38.6478C6.47978 38.3687 6.5787 38.1255 6.77655 37.9186C6.97373 37.7118 7.21274 37.6084 7.49225 37.6084C7.77175 37.6084 8.01541 37.7118 8.22255 37.9186C8.42969 38.1261 8.53326 38.3687 8.53326 38.6478C8.53326 38.7831 8.50405 38.9103 8.44629 39.0303C8.38853 39.151 8.3135 39.259 8.22188 39.3551C8.13026 39.4513 8.02138 39.5262 7.89657 39.5792C7.77109 39.6322 7.63631 39.6588 7.49158 39.6588C7.21207 39.6588 6.97307 39.5573 6.77588 39.3551C6.5787 39.1536 6.47978 38.9176 6.47978 38.6478Z" fill="#5C771D"/>
<path d="M23.3457 43.5587C23.3457 44.1845 23.2852 44.7214 23.1651 45.1689C23.0442 45.617 22.8544 45.9829 22.5934 46.2666C22.3332 46.551 21.9933 46.7579 21.5737 46.8878C21.1541 47.0177 20.6455 47.0827 20.048 47.0827H13.0039V44.4828H16.7935L15.9112 39.226L18.1824 38.7493L19.0794 44.4828H20.6123C20.7664 44.4828 20.8746 44.4516 20.9377 44.3886C21.0001 44.3263 21.0319 44.1984 21.0319 44.0061V36.3662H23.3463V43.5587H23.3457Z" fill="#5C771D"/>
<path d="M28.8275 39.0811C29.2418 39.0811 29.6567 39.2183 30.0717 39.4927C30.486 39.7672 30.8551 40.155 31.1784 40.6554C31.5011 41.1566 31.764 41.7559 31.9665 42.4532C32.169 43.1513 32.2699 43.9242 32.2699 44.7714C32.2699 45.7154 32.1132 46.5168 31.7998 47.1764C31.4865 47.836 31.0642 48.3749 30.5344 48.7939C30.004 49.2128 29.3865 49.5184 28.6828 49.7113C27.979 49.9036 27.2414 50.0004 26.47 50.0004L25.9202 47.4005C26.8842 47.4005 27.6703 47.3428 28.2778 47.2275C28.8853 47.1121 29.261 46.9822 29.4058 46.8377C28.6921 46.8085 28.0653 46.7435 27.5256 46.6428C26.9852 46.542 26.535 46.3783 26.1732 46.1516C25.8114 45.9255 25.5392 45.6265 25.3559 45.256C25.1727 44.8854 25.0811 44.4161 25.0811 43.848C25.0811 43.1745 25.2039 42.546 25.4495 41.9634C25.6952 41.3807 26.0012 40.8755 26.3684 40.4473C26.7349 40.0191 27.1372 39.6843 27.576 39.4437C28.0155 39.2017 28.4325 39.0811 28.8275 39.0811ZM27.2514 43.6014C27.2514 43.7366 27.2846 43.8592 27.3523 43.97C27.42 44.0807 27.5375 44.1748 27.7068 44.2517C27.8755 44.3286 28.1019 44.3863 28.3867 44.4247C28.6708 44.4632 29.03 44.4824 29.4642 44.4824H30.0863C30.0478 44.0873 29.9827 43.7194 29.8911 43.3773C29.7995 43.0359 29.6906 42.7396 29.5658 42.489C29.4403 42.2391 29.2982 42.0409 29.1395 41.8971C28.9802 41.7526 28.8142 41.6803 28.6403 41.6803C28.4856 41.6803 28.3269 41.738 28.1629 41.8533C27.9989 41.9687 27.8496 42.1205 27.7148 42.3081C27.5794 42.4957 27.4691 42.7031 27.3822 42.9292C27.2945 43.1566 27.2514 43.38 27.2514 43.6014Z" fill="#5C771D"/>
<path d="M34.2949 36.3662H36.6093V43.7748C36.6093 44.0446 36.6671 44.2295 36.7826 44.331C36.8981 44.4317 37.0767 44.4828 37.3177 44.4828H38.2001L38.8945 45.1762V46.3893L38.2001 47.0827H37.4624C36.9512 47.0827 36.4978 47.0204 36.1028 46.8951C35.7071 46.7698 35.3744 46.5729 35.1049 46.3031C34.8347 46.0333 34.6322 45.6866 34.4974 45.263C34.3626 44.8394 34.2949 44.329 34.2949 43.7324V36.3662Z" fill="#5C771D"/>
<path d="M38.1949 47.0829L37.5005 46.3895V45.1764L38.1949 44.483H40.4516C40.1063 44.1171 39.862 43.7704 39.7186 43.4429C39.5745 43.1161 39.5028 42.7495 39.5028 42.3452C39.5028 41.8639 39.5971 41.4184 39.785 41.0094C39.9729 40.6004 40.2285 40.2491 40.5518 39.9554C40.8751 39.6617 41.2556 39.4304 41.6944 39.262C42.1333 39.0936 42.5987 39.0094 43.09 39.0094C43.6204 39.0094 44.1071 39.0916 44.5512 39.2547C44.9947 39.4185 45.3732 39.6425 45.6865 39.9262C45.9999 40.2106 46.2435 40.5474 46.4168 40.9372C46.5901 41.327 46.6771 41.7486 46.6771 42.2007C46.6771 42.6726 46.5928 43.0909 46.4241 43.4569C46.2555 43.8228 46.0019 44.1648 45.6646 44.4824H47.979L48.6735 45.1758V46.3889L47.979 47.0823H47.0535C46.2728 47.0823 45.5298 46.9981 44.8248 46.8297C44.1197 46.6613 43.5315 46.4472 43.0581 46.1873C42.4977 46.4764 41.8418 46.6978 41.0889 46.8516C40.3361 47.006 39.5838 47.0829 38.8316 47.0829H38.1949ZM40.8765 36.9008C40.8765 36.6217 40.9754 36.3784 41.1732 36.1716C41.3704 35.9647 41.6094 35.8613 41.8889 35.8613C42.1685 35.8613 42.4121 35.9647 42.6192 36.1716C42.8264 36.3791 42.93 36.6217 42.93 36.9008C42.93 37.036 42.9014 37.1633 42.843 37.2839C42.7852 37.4039 42.7102 37.5126 42.6186 37.6087C42.527 37.7049 42.4181 37.7798 42.2933 37.8328C42.1678 37.8858 42.033 37.9123 41.8883 37.9123C41.6088 37.9123 41.3698 37.8109 41.1726 37.6094C40.9754 37.4066 40.8765 37.1706 40.8765 36.9008ZM41.8172 42.6634C41.8172 42.9332 41.9288 43.193 42.1519 43.4429C42.3749 43.6935 42.7049 43.9441 43.1411 44.194C43.9557 43.6935 44.3633 43.1831 44.3633 42.6634C44.3633 42.3551 44.2518 42.1025 44.0287 41.905C43.8057 41.7081 43.4903 41.6087 43.0833 41.6087C42.7148 41.6087 42.4114 41.7075 42.1738 41.905C41.9361 42.1025 41.8172 42.3551 41.8172 42.6634ZM43.3648 36.9008C43.3648 36.6217 43.4637 36.3784 43.6616 36.1716C43.8594 35.9647 44.0978 35.8613 44.3779 35.8613C44.6575 35.8613 44.9011 35.9647 45.1083 36.1716C45.3154 36.3791 45.419 36.6217 45.419 36.9008C45.419 37.036 45.3897 37.1633 45.332 37.2839C45.2742 37.4039 45.1992 37.5126 45.1076 37.6087C45.016 37.7049 44.9071 37.7798 44.7823 37.8328C44.6568 37.8858 44.522 37.9123 44.3773 37.9123C44.0978 37.9123 43.8588 37.8109 43.6609 37.6094C43.4637 37.4066 43.3648 37.1706 43.3648 36.9008Z" fill="#5C771D"/>
<path d="M47.9787 47.0824L47.2988 46.389V45.1759L47.9787 44.4825H48.9334C49.0489 43.8375 49.2394 43.231 49.505 42.6629C49.7699 42.0948 50.0886 41.6016 50.4597 41.1826C50.8308 40.7637 51.2358 40.4315 51.6747 40.1863C52.1135 39.941 52.5643 39.8184 53.0271 39.8184C53.3743 39.8184 53.6969 39.8787 53.9964 39.9987C54.2951 40.1193 54.5819 40.3507 54.8568 40.6921C55.1317 41.0341 55.3992 41.5081 55.6595 42.1147C55.9197 42.7212 56.18 43.5107 56.4409 44.4832H57.6412L58.3211 45.1766V46.3897L57.6412 47.0831H55.4424C54.9796 47.3622 54.4757 47.5551 53.9306 47.6605C53.3856 47.7665 52.8916 47.8196 52.4481 47.8196C52.1972 47.8196 51.9416 47.803 51.6813 47.7692C51.4211 47.7354 51.1674 47.687 50.9218 47.6247C50.6761 47.5624 50.4464 47.4848 50.2346 47.3933C50.0222 47.3019 49.839 47.1984 49.6849 47.0831H47.9787V47.0824ZM52.6798 45.2628C52.7761 45.2628 52.8943 45.2555 53.0344 45.2409C53.1738 45.2263 53.3139 45.2097 53.454 45.1905C53.5934 45.1713 53.7242 45.1474 53.8443 45.1183C53.9645 45.0891 54.0588 45.0606 54.1265 45.0314C53.9818 44.4733 53.849 44.0231 53.7288 43.6811C53.608 43.3397 53.4925 43.0745 53.3816 42.8869C53.2707 42.6993 53.1645 42.574 53.0636 42.5117C52.962 42.4494 52.8538 42.4176 52.7383 42.4176C52.5836 42.4176 52.4249 42.4925 52.2609 42.6417C52.0969 42.7908 51.9502 42.9784 51.8194 43.2051C51.6893 43.4312 51.5811 43.6818 51.4941 43.9562C51.4071 44.2306 51.364 44.4978 51.364 44.7576C51.364 44.9022 51.4556 45.0228 51.6388 45.1189C51.8214 45.2144 52.1686 45.2628 52.6798 45.2628Z" fill="#5C771D"/>
<path d="M57.6407 47.0824L56.9463 46.389V45.1759L57.6407 44.4825H58.2482C58.6625 44.4825 58.9301 44.4056 59.0509 44.2511C59.1717 44.0973 59.2315 43.866 59.2315 43.5577V36.3652H61.5459V43.2687C61.5459 43.5093 61.5293 43.7354 61.4954 43.9475C61.4616 44.1596 61.3872 44.3373 61.271 44.4818H62.9925L63.6724 45.1606V46.3883L62.9925 47.0817H57.6407V47.0824Z" fill="#5C771D"/>
<path d="M66.8839 43.4142C66.8839 43.9916 66.8262 44.5093 66.7107 44.9667C66.5951 45.4241 66.4066 45.8092 66.1463 46.1221C65.8861 46.435 65.5481 46.6737 65.1339 46.8367C64.7189 47.0005 64.2084 47.082 63.6002 47.082H62.9781L62.2837 46.3886V45.1755L62.9781 44.4821H63.8605C64.1015 44.4821 64.2801 44.4317 64.3956 44.3303C64.5111 44.2289 64.5689 44.0439 64.5689 43.7741V36.3662H66.8833V43.4142H66.8839Z" fill="#5C771D"/>
</svg>
