<svg width="19" height="20" viewBox="0 0 19 20" fill="none" xmlns="http://www.w3.org/2000/svg">
<g clip-path="url(#clip0_55_2971)">
<path d="M9.5 0.5C6.73762 0.5 4.49023 2.74738 4.49023 5.50977C4.49023 8.27215 6.73762 10.5195 9.5 10.5195C12.2624 10.5195 14.5098 8.27215 14.5098 5.50977C14.5098 2.74738 12.2624 0.5 9.5 0.5ZM9.5 9.40625C7.35148 9.40625 5.60352 7.65829 5.60352 5.50977C5.60352 3.36124 7.35148 1.61328 9.5 1.61328C11.6485 1.61328 13.3965 3.36124 13.3965 5.50977C13.3965 7.65829 11.6485 9.40625 9.5 9.40625Z" fill="#DB9E3B"/>
<path d="M15.7331 13.7924C14.3616 12.3998 12.5433 11.6328 10.6133 11.6328H8.38672C6.45673 11.6328 4.63845 12.3998 3.26689 13.7924C1.90204 15.1782 1.15039 17.0075 1.15039 18.9434C1.15039 19.2508 1.39962 19.5 1.70703 19.5H17.293C17.6004 19.5 17.8496 19.2508 17.8496 18.9434C17.8496 17.0075 17.098 15.1782 15.7331 13.7924ZM2.28816 18.3867C2.56704 15.2292 5.19572 12.7461 8.38672 12.7461H10.6133C13.8043 12.7461 16.433 15.2292 16.7118 18.3867H2.28816Z" fill="#DB9E3B"/>
</g>
<defs>
<clipPath id="clip0_55_2971">
<rect width="19" height="19" fill="white" transform="translate(0 0.5)"/>
</clipPath>
</defs>
</svg>
